# xmcd
#
# Track frame offsets: 
#        150
#        17598
#        68585
#        118205
#        146637
#        193592
#        255315
#
# Disc length: 3639 seconds
#
# Revision: 1
# Processed by: cddbd v1.5.2PL0 Copyright (c) Steve Scherf et al.
# Submitted via: ExactAudioCopy v1.0b3
#
DISCID=5b0e3507
DTITLE=Quartet B - Üveghegy
DYEAR=2003
DGENRE=EU-Hu-Jazz
TTITLE0=Tánc
TTITLE1=Fekete Felleg
TTITLE2=Üveghegy
TTITLE3=Erdély Blues
TTITLE4=Határok
TTITLE5=Villők Tánca
TTITLE6=37
EXTD=YEAR: 2003
EXTT0=
EXTT1=
EXTT2=
EXTT3=
EXTT4=
EXTT5=
EXTT6=
PLAYORDER=
